<?xml version="1.0" encoding="UTF-8" standalone="no"?>
<!-- Generator: Adobe Illustrator 26.0.3, SVG Export Plug-In . SVG Version: 6.00 Build 0)  -->

<svg
   version="1.0"
   id="svg5"
   x="0px"
   y="0px"
   viewBox="0 0 301.55702 368.34544"
   xml:space="preserve"
   sodipodi:docname="linktree.svg"
   width="301.55701"
   height="368.34543"
   inkscape:version="1.2.2 (b0a8486541, 2022-12-01)"
   xmlns:inkscape="http://www.inkscape.org/namespaces/inkscape"
   xmlns:sodipodi="http://sodipodi.sourceforge.net/DTD/sodipodi-0.dtd"
   xmlns="http://www.w3.org/2000/svg"
   xmlns:svg="http://www.w3.org/2000/svg"><defs
   id="defs8960" /><sodipodi:namedview
   id="namedview8958"
   pagecolor="#ffffff"
   bordercolor="#000000"
   borderopacity="0.25"
   inkscape:showpageshadow="2"
   inkscape:pageopacity="0.0"
   inkscape:pagecheckerboard="0"
   inkscape:deskcolor="#d1d1d1"
   showgrid="false"
   inkscape:zoom="0.61552071"
   inkscape:cx="167.33799"
   inkscape:cy="136.46982"
   inkscape:window-width="1920"
   inkscape:window-height="1007"
   inkscape:window-x="0"
   inkscape:window-y="0"
   inkscape:window-maximized="1"
   inkscape:current-layer="layer1" />
<style
   type="text/css"
   id="style8950">
	.st0{fill-rule:evenodd;clip-rule:evenodd;fill:#43E660;}
</style>
<g
   id="layer1"
   transform="translate(-239.82907,-113.36198)"
   >
	<g
   id="g46"
   transform="matrix(0.26458333,0,0,0.26458333,-15.67531,43.64805)">
		<g
   id="g18"
   transform="matrix(0.857143,0,0,0.857143,8,306)">
			<path
   id="path993"
   class="st0"
   d="m 1666.4,1043.3 h 236.4 v 531.3 h -236.4 v -531.3" />
			<path
   id="path991"
   class="st0"
   d="m 1119.8,499.4 h 401.7 l -286,-270.7 157.6,-160.6 272.1,278.3 v -396 h 236.4 v 395.9 l 272,-278.3 157.6,160.6 -286,270.7 H 2447 v 223.9 h -404.3 l 287.3,278.3 -157.6,156.9 -390.3,-390.9 -390.3,390.9 -157.6,-156.9 287.3,-278.3 H 1117.3 V 499.4 h 2.5" />
		</g>
	</g>
</g>
</svg>
