<svg xmlns="http://www.w3.org/2000/svg" xmlns:xlink="http://www.w3.org/1999/xlink" version="1.1" x="0px" y="0px" viewBox="0 0 64 80" style="enable-background:new 0 0 64 64;" xml:space="preserve"><g><path d="M17,53C8.7,53,2,46.3,2,38c0-3.2,1-6.2,2.8-8.7l-1.6-1.2C1.1,31,0,34.4,0,38c0,5.8,2.9,10.8,7.3,13.9C9.9,59.3,10,64,10,64   l2,0c0-0.2,0-4.1-2.1-10.6c2.2,1,4.6,1.6,7.1,1.6c4.4,0,8.5-1.7,11.7-4.7l-1.4-1.5C24.5,51.5,20.9,53,17,53z"/><path d="M64,38c0-3.6-1.1-7-3.2-9.9l-1.6,1.2C61,31.8,62,34.8,62,38c0,8.3-6.7,15-15,15c-3.9,0-7.5-1.5-10.3-4.1l-1.4,1.5   c3.2,3,7.3,4.7,11.7,4.7c2.5,0,4.9-0.6,7.1-1.6C52,59.9,52,63.8,52,64l2,0c0,0,0.1-4.7,2.7-12.1C61.1,48.8,64,43.8,64,38z"/><path d="M8,18h19v-2h-2.1c-0.1-0.8-0.3-2-0.8-3.6c2,0.9,4.6,1.6,7.9,1.6c3.3,0,5.9-0.6,7.9-1.6c-0.5,1.5-0.7,2.8-0.8,3.6H29v2h27   v20h2V16H41.1c0.2-1.1,0.6-3.1,1.8-5.5C46.5,7.4,47,3.2,47,3.1l-2-0.2c0,0.4-1,9.1-13,9.1c-11.9,0-13-8.7-13-9.1l-2,0.2   c0,0.1,0.5,4.3,4.1,7.4c1.2,2.4,1.6,4.3,1.8,5.5H6v22h2V18z"/><path d="M8,41c0,2.4,1.6,4,4,4c1.9,0,3.4-1.3,3.9-3h32.3c0.4,1.7,2,3,3.9,3c2.4,0,4-1.6,4-4v-1H8V41z M53.8,42   c-0.4,0.9-1.3,1-1.8,1c-0.7,0-1.4-0.4-1.7-1H53.8z M13.7,42c-0.3,0.6-1,1-1.7,1c-0.5,0-1.4-0.1-1.8-1H13.7z"/><path d="M31,6h2c1.7,0,3-1.3,3-3s-1.3-3-3-3h-2c-1.7,0-3,1.3-3,3S29.3,6,31,6z M31,2h2c0.6,0,1,0.4,1,1s-0.4,1-1,1h-2   c-0.6,0-1-0.4-1-1S30.4,2,31,2z"/><polygon points="17.7,33.7 21,30.4 24.3,33.7 25.7,32.3 22.4,29 25.7,25.7 24.3,24.3 21,27.6 17.7,24.3 16.3,25.7 19.6,29    16.3,32.3  "/><polygon points="28.7,33.7 32,30.4 35.3,33.7 36.7,32.3 33.4,29 36.7,25.7 35.3,24.3 32,27.6 28.7,24.3 27.3,25.7 30.6,29    27.3,32.3  "/><polygon points="39.7,33.7 43,30.4 46.3,33.7 47.7,32.3 44.4,29 47.7,25.7 46.3,24.3 43,27.6 39.7,24.3 38.3,25.7 41.6,29    38.3,32.3  "/></g><text x="0" y="79" fill="#000000" font-size="5px" font-weight="bold" font-family="'Helvetica Neue', Helvetica, Arial-Unicode, Arial, Sans-serif">Created by Anatolii Babii</text><text x="0" y="84" fill="#000000" font-size="5px" font-weight="bold" font-family="'Helvetica Neue', Helvetica, Arial-Unicode, Arial, Sans-serif">from the Noun Project</text></svg>