<svg xmlns="http://www.w3.org/2000/svg" xmlns:xlink="http://www.w3.org/1999/xlink" version="1.1" x="0px" y="0px" viewBox="0 0 100 125" enable-background="new 0 0 100 100" xml:space="preserve"><path d="M39.246,56.594c-3.701-0.313-7.66,2.204-9.272,5.568c-0.256,0.536-0.336,1.062-0.118,1.613  c0.313,0.793,0.651,1.58,0.976,2.369c0.026,0.063,0.032,0.135,0.049,0.201c-0.053,0.032-0.107,0.066-0.161,0.1  c-0.544-0.795-1.081-1.596-1.643-2.377c-0.105-0.146-0.339-0.332-0.476-0.303c-0.48,0.094-0.85-0.101-1.216-0.308  c-0.204-0.115-0.406-0.231-0.625-0.31c0.221-0.01,0.398-0.018,0.558-0.027c0.894-0.055,0.938-0.188,1.178-1.086  c-0.229-0.104-0.468-0.197-0.695-0.317c-0.211-0.108-0.409-0.241-0.581-0.483c0.303,0.062,0.609,0.115,0.908,0.192  c0.446,0.119,0.774,0.063,0.971-0.432c0.143-0.356,0.381-0.677,0.567-0.996c-0.256-0.175-0.51-0.349-0.764-0.521  c0.185-0.053,0.358-0.125,0.514-0.229c0.062,0.021,0.125,0.04,0.185,0.064c0.355,0.14,0.56,0.037,0.789-0.262  c0.803-1.044,1.735-1.863,2.734-2.496c0.33,0.495,0.871,0.805,1.493,0.805c0.986,0,1.772-0.747,1.829-1.736  c0.009-0.156,0.03-0.307,0.041-0.461c1.749-0.404,3.524-0.384,5.098-0.038c0.896,1.194,1.958,2.257,3.173,3.201  c0.162,0.437,0.284,0.901,0.351,1.403c-0.032-0.019-0.086-0.027-0.105-0.06C43.694,57.508,41.603,56.796,39.246,56.594z   M52.434,69.104l0.521-0.396l-0.531-0.378L50,66.605l1.352,2.121L50,70.941L52.434,69.104z M29.924,23.238l0.109,0.138  c2.532-1.139,5.27-1.732,8.204-1.732c4.138,0,8.594,1.194,12.919,3.458c0.31-0.155,0.619-0.311,0.93-0.468  c3.533-1.783,7.188-3.627,11.2-3.629c0.272,0,0.548,0.01,0.825,0.028c2.014,0.133,3.957,0.787,5.859,1.976l0.23-0.17  c0.682-0.502,1.426-0.884,2.207-1.153c-2.186-2.624-4.912-4.977-8.174-5.777c-1.006-0.265-2.071-0.388-3.135-0.388  c-1.037,0-2.072,0.118-3.057,0.338c-0.62,0.149-1.416,0.646-2.062,0.696c-0.571,0.595-1.043,0.896-1.418,0.896  c-0.439,0-0.744-0.413-0.918-1.245c-0.746-0.944-0.92-2.039-0.498-3.256c0.037-0.526-0.436-0.896-0.914-0.896  c-0.157,0-0.312,0.04-0.453,0.125c-2.685,1.567-3.953,3.63-4.151,6.439c-2.486-1.393-4.599-3.059-6.588-5.221  c-0.167-0.175-0.396-0.253-0.629-0.253c-0.496,0-1.005,0.357-0.938,0.899c0.174,1.79,0.572,3.182,1.243,4.451  c-2.416-1.271-4.963-2.503-7.566-2.503c-0.961,0-1.929,0.167-2.901,0.563c-1.75,0.721-3.255,2.184-4.409,3.924  C27.431,20.956,28.857,21.897,29.924,23.238z M16.649,30.626L16.649,30.626c0.08,0.241,0.173,0.475,0.278,0.703  c0.003,0.007,0.006,0.015,0.01,0.022c0.103,0.224,0.218,0.441,0.343,0.652c0.005,0.009,0.011,0.019,0.017,0.028  c0.126,0.211,0.263,0.415,0.41,0.611c0.004,0.005,0.008,0.011,0.012,0.016c0.414,0.55,0.896,1.047,1.447,1.461  c1.18-2.525,2.985-4.982,5.619-7.33c1.34-1.195,2.77-2.17,4.274-2.951c-1.32-1.628-3.329-2.673-5.587-2.673  c-3.976,0-7.2,3.223-7.2,7.198C16.272,29.157,16.411,29.914,16.649,30.626L16.649,30.626z M65.576,66.241  c0.091,0.077,0.271,0.228,0.48,0.403c0.771-1.074,1.098-2.273,1.112-3.558c0.026-2.284-0.7-4.22-2.744-5.451  c-2.378-1.437-5.55-0.258-6.448,2.355c0.336,0.071,0.696,0.09,1.008,0.225c0.394,0.169,0.697,0.503,0.562,0.966  c-0.14,0.485-0.579,0.485-0.972,0.367c-0.349-0.105-0.671-0.296-1.095-0.49c-0.561,2.614-0.143,4.922,2.014,6.817  c-0.258,0.124-0.475,0.229-0.766,0.37c1.623,0.506,3.209,0.604,4.823,0.457c0.203-0.02,0.409-0.035,0.608-0.077  c0.271-0.058,0.546-0.132,0.801-0.092c0.158,0.147,0.321,0.304,0.507,0.479c-0.013-0.086-0.028-0.137-0.043-0.205  c0.063,0.073,0.126,0.164,0.185,0.278c0.062-0.485-0.111-0.659-0.366-0.759c-0.103-0.112-0.261-0.146-0.485-0.137  c-0.058-0.016-0.115-0.031-0.174-0.051c0.361-0.266,0.641-0.471,0.977-0.716c-0.345-0.192-0.561-0.313-0.822-0.462  c-1.135,1.206-2.524,1.37-4.012,0.775c-0.401-0.162-0.787-0.504-1.049-0.857c-0.596-0.802-1.203-1.626-1.045-2.732  c0.061-0.403,0.188-0.746,0.645-0.782c0.484-0.036,0.515,0.345,0.606,0.702c0.241,0.928,0.53,1.842,1.537,2.252  c0.574,0.232,1.146,0.199,1.646-0.168c0.925-0.67,1.438-1.582,1.488-2.738c0.02-0.369-0.027-0.778,0.112-1.102  c0.131-0.295,0.438-0.584,0.735-0.705c0.152-0.061,0.617,0.223,0.662,0.414c0.15,0.676,0.31,1.391,0.226,2.062  C66.2,64.799,65.841,65.479,65.576,66.241z M69.167,66.145c-0.024,0.064-0.03,0.136-0.049,0.203  c0.054,0.031,0.106,0.065,0.161,0.098c0.544-0.793,1.08-1.594,1.643-2.377c0.105-0.146,0.342-0.33,0.477-0.303  c0.479,0.096,0.851-0.1,1.219-0.307c0.201-0.115,0.404-0.232,0.624-0.311c-0.222-0.01-0.399-0.017-0.56-0.026  c-0.895-0.056-0.938-0.188-1.18-1.086c0.23-0.103,0.471-0.197,0.696-0.317c0.211-0.109,0.407-0.242,0.581-0.482  c-0.305,0.062-0.61,0.115-0.909,0.191c-0.445,0.119-0.774,0.063-0.97-0.432c-0.144-0.357-0.383-0.678-0.567-0.996  c0.5-0.341,0.996-0.68,1.491-1.018c-0.025-0.045-0.051-0.092-0.075-0.138c-0.451,0.155-0.909,0.294-1.351,0.47  c-0.355,0.141-0.561,0.039-0.791-0.26c-3.39-4.41-9.024-4.922-12.721-3.474c-0.236,0.092-0.469,0.21-0.679,0.387  c0.476-0.094,0.952-0.188,1.427-0.28c-1.695,0.818-2.506,2.231-2.744,4.043c0.03-0.018,0.086-0.026,0.104-0.059  c1.312-2.165,3.402-2.877,5.759-3.079c3.702-0.313,7.66,2.204,9.272,5.568c0.256,0.536,0.338,1.063,0.119,1.614  C69.83,64.568,69.493,65.355,69.167,66.145z M42.518,61.061c-0.423,0.193-0.746,0.383-1.094,0.489  c-0.392,0.118-0.832,0.118-0.972-0.368c-0.134-0.462,0.17-0.796,0.563-0.965c0.311-0.135,0.671-0.152,1.009-0.225  c-0.899-2.613-4.072-3.792-6.45-2.355c-2.044,1.231-2.771,3.168-2.744,5.451c0.016,1.283,0.345,2.482,1.113,3.557  c0.21-0.176,0.391-0.326,0.481-0.402c-0.264-0.762-0.625-1.442-0.714-2.157c-0.083-0.671,0.074-1.386,0.227-2.062  c0.043-0.191,0.51-0.475,0.66-0.414c0.299,0.121,0.606,0.41,0.736,0.705c0.141,0.322,0.095,0.731,0.112,1.102  c0.052,1.157,0.566,2.068,1.49,2.739c0.501,0.366,1.071,0.399,1.646,0.167c1.006-0.41,1.294-1.324,1.536-2.252  c0.094-0.357,0.122-0.738,0.608-0.702c0.455,0.036,0.585,0.379,0.643,0.782c0.16,1.106-0.45,1.932-1.044,2.732  c-0.263,0.354-0.646,0.695-1.049,0.857c-1.486,0.595-2.875,0.431-4.011-0.775c-0.262,0.146-0.479,0.27-0.821,0.462  c0.334,0.245,0.613,0.45,0.976,0.716c-0.285,0.101-0.582,0.125-0.787,0.248c0.069-0.063,0.139-0.131,0.208-0.193  c-0.618-0.065-0.755,0.057-0.869,0.816c0.189-0.179,0.355-0.334,0.516-0.484c-0.085,0.117-0.129,0.287-0.095,0.56  c0.379-0.759,0.92-0.569,1.449-0.461c0.2,0.042,0.406,0.06,0.609,0.077c1.613,0.146,3.201,0.049,4.824-0.457  c-0.291-0.141-0.508-0.246-0.765-0.37C42.661,65.98,43.078,63.674,42.518,61.061z M78.387,50.678  c0.01,0.059,0.021,0.119,0.028,0.178c0.081,0.48,0.149,0.963,0.203,1.451c0.021,0.196,0.034,0.396,0.053,0.596  c0.032,0.373,0.067,0.748,0.086,1.129c0.027,0.609,0.04,1.226,0.029,1.857c-0.015,0.613,0.509,0.961,1.017,0.961  c0.398,0,0.787-0.216,0.897-0.688c1.591-6.638,1.181-13.43-1.304-19.54l-0.047,0.039l-0.576-1.252c-0.309-0.673-0.646-1.328-1-1.973  c0-0.001-0.002-0.003-0.002-0.005v0.001c-0.896-1.628-1.928-3.166-3.094-4.582c-1.443-1.775-2.945-3.229-4.466-4.319l-1.169-0.839  l0.02-0.015c-1.515-0.883-3.182-1.479-5.021-1.601c-0.255-0.017-0.506-0.026-0.757-0.026c-4.288,0.001-8.295,2.325-12.146,4.228  c-4.116-2.235-8.554-3.589-12.902-3.589c-2.571,0-5.105,0.494-7.527,1.538l0.006,0.007l-1.131,0.585  c-1.454,0.752-2.82,1.694-4.061,2.8c-2.405,2.146-4.154,4.434-5.346,6.996l-0.538,1.156l-0.034-0.024  c-1.18,3.078-1.443,6.314-1.097,9.716l0,0c0,0.001,0,0.002,0,0.003c0.24,2.358,0.771,4.796,1.502,7.32  c0.001,0.003,0.002,0.007,0.003,0.011c0.243,0.839,0.507,1.688,0.791,2.545c0.063,0.202,0.242,0.309,0.418,0.309  c0.171,0,0.341-0.1,0.402-0.309c0.237-0.818,0.455-1.631,0.655-2.439l0,0c0.22-0.889,0.418-1.772,0.588-2.656  c1.244,2.785,2.76,5.371,4.625,7.882c0.197,0.259,0.531,0.394,0.847,0.394c0.444,0,0.852-0.266,0.794-0.814  c-0.646-6.018,0.075-11.737,2.163-17.206c0.075,5.195,0.92,10.218,2.586,15.265c0.122,0.379,0.427,0.551,0.732,0.551  c0.378,0,0.757-0.269,0.784-0.75c0.298-4.946,1.393-9.372,3.357-13.698c0.074,6.439,1.889,12.506,7.607,16.36  c0.104,0.065,0.209,0.098,0.308,0.098c0.373,0,0.671-0.42,0.613-0.795c-1.044-6.538,0.024-12.256,2.859-17.949  c1.242,5.395,3.903,9.795,8.477,13.324c0.128,0.098,0.251,0.141,0.364,0.141c0.44,0,0.733-0.624,0.556-1.061  c-1.565-3.654-2.013-7.68-2.112-11.658c3.258,4.698,6.613,9.373,9.797,14.121c0.129,0.188,0.332,0.277,0.53,0.277  c0.302,0,0.588-0.203,0.588-0.576c-0.052-3.878-0.198-7.757-0.423-11.635c2.585,4.75,4.798,9.647,6.587,14.793  c0.144,0.441,0.593,0.699,1.021,0.699c0.39,0,0.763-0.214,0.869-0.699c0.623-3.06,1.068-6.117,1.441-9.175  c0.086,0.319,0.15,0.641,0.225,0.961l0,0C78.188,49.619,78.295,50.146,78.387,50.678z M88.289,31.787  c-0.668-0.256-3.387-1.042-5.051-1.172c-0.278,1.996-1.271,3.833-2.838,5.156l-0.178,0.151c2.627,6.281,3.192,13.4,1.495,20.479  c-0.209,0.895-0.979,1.494-1.916,1.494c-0.573,0-1.127-0.227-1.515-0.623c-0.36-0.367-0.555-0.858-0.549-1.381  c-0.104,0.558-0.209,1.104-0.317,1.643c-0.2,0.908-0.962,1.521-1.892,1.521c-0.383,0-0.738-0.121-1.055-0.301  c-1.08,6.205-2.285,12.305-4.148,18.312c-0.398,0.246-0.823,0.504-1.271,0.769c-5.76,3.396-15.146,8.008-15.248,8.058  c-2.42,1.08-5.195,1.08-7.611,0.002c-0.121-0.055-9.528-4.328-15.154-7.739c-0.454-0.274-0.884-0.546-1.282-0.806  c-2.133-6.798-3.41-13.711-4.607-20.761c-0.687-1.048-1.326-2.11-1.91-3.204c-0.183,0.727-0.386,1.475-0.612,2.254  c-0.187,0.633-0.751,1.06-1.406,1.06c-0.652,0-1.222-0.419-1.412-1.027c-2.26-6.845-3.736-13.923-1.077-20.561l-0.125-0.091  c-1.45-1.062-2.487-2.566-3.006-4.244c-1.557,0.28-3.366,0.812-3.895,1.014C7.535,33.403,5.15,38.55,5,42.876  c-0.016,0.549,0.401,0.841,0.842,0.841c0.219,0,0.444-0.071,0.625-0.22c0.548-0.448,1.069-0.846,1.616-1.243  c-1.193,3.629-0.447,8.129-0.447,11.76c0,0.473,0.415,0.842,0.854,0.842c0.14,0,0.282-0.037,0.415-0.119  c0.874-0.549,1.752-1.282,2.654-2.03c-0.203,2.264-0.349,4.726-0.278,6.713c0,0.011,0.002,0.021,0.003,0.032  c-0.009,3.462,0.302,6.943,0.634,10.372c0.028,0.291,0.257,0.46,0.489,0.46c0.183,0,0.367-0.104,0.456-0.334  c0.902-2.475,1.151-3.29,1.282-3.29c0,0,0.292,4.062,1.526,7.167c0.002,0.007,0.007,0.013,0.009,0.019  c2.491,7.486,7.631,13.478,16.775,14.046c0.021,0,0.042,0.002,0.062,0.002c0.701,0,0.999-0.814,0.733-1.396  c-1.111-2.42-2.057-4.856-2.887-7.308c0.426,0.259,0.87,0.521,1.331,0.789c5.66,3.264,13.531,6.84,13.993,7.049  c1.368,0.611,2.836,0.918,4.308,0.918c1.478,0,2.956-0.31,4.339-0.928c0.451-0.221,8.367-4.107,14.096-7.382  c0.454-0.26,0.895-0.516,1.317-0.766c-0.854,2.559-1.836,5.101-2.996,7.626c-0.267,0.58,0.032,1.395,0.733,1.395  c0.021,0,0.039,0,0.061-0.002C76.691,87.32,81.83,81.33,84.32,73.846c0.003-0.007,0.009-0.014,0.011-0.021  c1.231-3.104,1.526-7.167,1.526-7.167c0.131,0,0.379,0.816,1.281,3.29c0.088,0.229,0.271,0.334,0.455,0.334  c0.231,0,0.461-0.169,0.489-0.46c0.331-3.43,0.644-6.91,0.634-10.372c0-0.013,0.002-0.021,0.004-0.032  c0.069-1.986-0.074-4.449-0.279-6.713c0.902,0.748,1.781,1.482,2.654,2.029c0.133,0.082,0.275,0.121,0.416,0.121  c0.438,0,0.854-0.371,0.854-0.844c0-3.629,0.746-8.13-0.446-11.759c0.545,0.397,1.067,0.794,1.615,1.243  c0.181,0.148,0.405,0.22,0.624,0.22c0.441,0,0.859-0.292,0.843-0.841C94.852,38.55,92.465,33.403,88.289,31.787z M42.9,73.436  l-0.064-0.43h14.328l-0.064,0.43c-0.748,5.051-4.492,9.147-7.096,9.172C47.395,82.583,43.648,78.486,42.9,73.436z M43.717,73.758  c0.22,1.19,0.604,2.297,1.089,3.285c0.654-0.092,1.321-0.146,2.023-0.146c2.863,0,5.448,0.774,7.26,1.985  c0.99-1.364,1.825-3.123,2.193-5.124H43.717z M75.542,28.149c1.132,1.374,2.115,2.837,2.979,4.358  c0.199,0.351,0.392,0.704,0.58,1.06c0.231,0.449,0.465,0.898,0.676,1.357c0.271-0.236,0.521-0.497,0.755-0.77  c0.045-0.052,0.089-0.103,0.132-0.155c0.232-0.285,0.445-0.585,0.631-0.904c0.003-0.005,0.005-0.01,0.008-0.015  c0.201-0.343,0.37-0.704,0.512-1.08l0,0c0.144-0.38,0.254-0.774,0.332-1.182l0,0l0,0c0.082-0.435,0.135-0.882,0.135-1.342  c0-3.976-3.225-7.198-7.199-7.198c-1.57,0-3.016,0.513-4.198,1.366C72.457,24.776,74.005,26.26,75.542,28.149z"/><text x="0" y="115" fill="#000000" font-size="5px" font-weight="bold" font-family="'Helvetica Neue', Helvetica, Arial-Unicode, Arial, Sans-serif">Created by Kevin</text><text x="0" y="120" fill="#000000" font-size="5px" font-weight="bold" font-family="'Helvetica Neue', Helvetica, Arial-Unicode, Arial, Sans-serif">from the Noun Project</text></svg>