<svg xmlns:dc="http://purl.org/dc/elements/1.1/" xmlns:cc="http://creativecommons.org/ns#" xmlns:rdf="http://www.w3.org/1999/02/22-rdf-syntax-ns#" xmlns:svg="http://www.w3.org/2000/svg" xmlns="http://www.w3.org/2000/svg" xmlns:sodipodi="http://sodipodi.sourceforge.net/DTD/sodipodi-0.dtd" xmlns:inkscape="http://www.inkscape.org/namespaces/inkscape" version="1.1" x="0px" y="0px" viewBox="0 0 100 125"><g transform="translate(0,-952.36218)"><path style="text-indent:0;text-transform:none;direction:ltr;block-progression:tb;baseline-shift:baseline;color:#000000;enable-background:accumulate;" d="m 43,1046.3623 c 5.4992,0 10,-4.5008 10,-10 0,-3.8157 -2.18,-7.1594 -5.3438,-8.8438 L 53.5,1008.3311 c 0.1678,0.01 0.3306,0.031 0.5,0.031 3.667,0 6.9511,-1.6705 9.1562,-4.2812 l 15.8126,12.4687 c -0.6183,1.1332 -0.9688,2.4392 -0.9688,3.8125 0,4.3946 3.6054,8 8,8 4.3946,0 8,-3.6054 8,-8 0,-4.3946 -3.6054,-8 -8,-8 -1.5584,0 -3.0157,0.4688 -4.25,1.25 L 65.2188,1000.5809 C 65.7205,999.26137 66,997.85267 66,996.36207 c 0,-2.5739 -0.8272,-4.9785 -2.2188,-6.9375 L 76.5,976.70587 c 1.5783,1.0436 3.4773,1.6562 5.5,1.6562 5.4991,0 10,-4.5008 10,-10 0,-5.4992 -4.5009,-10 -10,-10 -5.4991,0 -10,4.5008 -10,10 0,2.0371 0.6303,3.9149 1.6875,5.5 l -12.75,12.75 c -1.9668,-1.4096 -4.3453,-2.25 -6.9375,-2.25 -2.2525,0 -4.3509,0.6293 -6.1562,1.7188 l -7.7813,-9.1876 c 1.2119,-1.5337 1.9375,-3.4381 1.9375,-5.5312 0,-4.9469 -4.0531,-9 -9,-9 -4.9469,0 -9,4.0531 -9,9 0,4.9469 4.0531,9 9,9 1.4112,0 2.7451,-0.3512 3.9375,-0.9375 l 7.8437,9.2813 c -1.7315,2.0809 -2.7812,4.7515 -2.7812,7.6562 0,0.6191 0.065,1.2181 0.1562,1.8125 l -23.8124,7.65633 c -1.288,-1.5199 -3.2135,-2.4688 -5.3438,-2.4688 -3.8423,0 -7,3.1577 -7,7 0,3.8423 3.1577,7 7,7 3.8423,0 7,-3.1577 7,-7 0,-0.2843 -0.029,-0.5679 -0.062,-0.8438 l 23.4687,-7.5312 c 1.3361,2.4872 3.5442,4.447 6.1876,5.5 l -5.7813,18.9062 c -0.2656,-0.021 -0.5416,-0.031 -0.8125,-0.031 -5.4992,0 -10,4.5008 -10,10 0,5.4992 4.5008,10 10,10 z m 0,-4 c -3.3374,0 -6,-2.6626 -6,-6 0,-3.3374 2.6626,-6 6,-6 3.3374,0 6,2.6626 6,6 0,3.3374 -2.6626,6 -6,6 z m 43,-18 c -2.2328,0 -4,-1.7672 -4,-4 0,-2.2328 1.7672,-4 4,-4 2.2328,0 4,1.7672 4,4 0,2.2328 -1.7672,4 -4,4 z m -73,-11 c -1.6805,0 -3,-1.3195 -3,-3 0,-1.6805 1.3195,-3 3,-3 1.6805,0 3,1.3195 3,3 0,1.6805 -1.3195,3 -3,3 z m 41,-9 c -4.4419,0 -8,-3.558 -8,-8.00003 0,-4.442 3.5581,-8 8,-8 4.4419,0 8,3.558 8,8 0,4.44203 -3.5581,8.00003 -8,8.00003 z M 33,976.36227 c -2.7851,0 -5,-2.2149 -5,-5 0,-2.7851 2.2149,-5 5,-5 2.7851,0 5,2.2149 5,5 0,2.7851 -2.2149,5 -5,5 z m 49,-2 c -3.3373,0 -6,-2.6626 -6,-6 0,-3.3373 2.6627,-6 6,-6 3.3373,0 6,2.6627 6,6 0,3.3374 -2.6627,6 -6,6 z" fill="#000000" fill-opacity="1" stroke="none" marker="none" visibility="visible" display="inline" overflow="visible"/></g><text x="0" y="115" fill="#000000" font-size="5px" font-weight="bold" font-family="'Helvetica Neue', Helvetica, Arial-Unicode, Arial, Sans-serif">Created by Three Six Five</text><text x="0" y="120" fill="#000000" font-size="5px" font-weight="bold" font-family="'Helvetica Neue', Helvetica, Arial-Unicode, Arial, Sans-serif">from the Noun Project</text></svg>