<?xml version="1.0" encoding="UTF-8"?>
<svg width="79.6" height="84.5" overflow="visible" version="1.2" viewBox="0 0 79.6 84.5" xml:space="preserve" xmlns="http://www.w3.org/2000/svg">
<path d="m64 55.701c-0.1625 0-0.3234 0.01-0.4824 0.024-0.159 0.016-0.316 0.038-0.4707 0.07s-0.3074 0.072-0.457 0.1211c-0.1496 0.049-0.2957 0.1062-0.4395 0.1718-0.1437 0.066-0.2847 0.1397-0.4218 0.2227-0.1372 0.083-0.2708 0.1746-0.4004 0.2754-0.1297 0.1008-0.2555 0.2111-0.377 0.3301-0.1215 0.1189-0.2391 0.2472-0.3516 0.3847s-0.2185 0.2822-0.3183 0.4356c-0.1 0.1533-0.1926 0.3148-0.2793 0.4843-0.087 0.1696-0.167 0.3471-0.2402 0.5332-0.073 0.1862-0.1399 0.3809-0.1993 0.584-0.059 0.2032-0.1111 0.4143-0.1562 0.6348-0.045 0.2205-0.083 0.4512-0.1133 0.6894-0.03 0.2383-0.055 0.4858-0.07 0.7422-0.015 0.2565-0.023 0.5219-0.023 0.7969 0 0.2875 0.01 0.5641 0.019 0.8301 0.012 0.266 0.03 0.5203 0.055 0.7656 0.024 0.2453 0.054 0.4817 0.09 0.707 0.036 0.2254 0.078 0.4403 0.125 0.6465 0.047 0.2063 0.099 0.4039 0.1563 0.5918 0.058 0.1879 0.1195 0.3668 0.1875 0.5371s0.1408 0.3309 0.2187 0.4844c0.078 0.1535 0.1625 0.3 0.25 0.4375 0.125 0.1875 0.2541 0.3639 0.3887 0.5293s0.2734 0.3199 0.418 0.4629c0.1445 0.143 0.2943 0.2744 0.4492 0.3945 0.077 0.06 0.1562 0.1176 0.2363 0.1719 0.08 0.054 0.1613 0.1039 0.2441 0.1523 0.083 0.048 0.1684 0.094 0.2539 0.1368 0.086 0.043 0.1714 0.082 0.2598 0.1191 0.088 0.037 0.1783 0.071 0.2695 0.1016 0.091 0.031 0.1832 0.057 0.2774 0.082 0.094 0.025 0.19 0.046 0.2871 0.064 0.097 0.019 0.1968 0.034 0.2969 0.047 0.1001 0.012 0.2015 0.021 0.3047 0.027 0.1031 0.01 0.2082 0.01 0.3144 0.01 0.15 0 0.2986-0.01 0.4453-0.024 0.1467-0.016 0.2907-0.04 0.4336-0.072 0.143-0.032 0.283-0.072 0.4219-0.1211 0.1389-0.049 0.2758-0.1043 0.4102-0.17 0.1343-0.066 0.2669-0.1396 0.3964-0.2226s0.2567-0.1746 0.3809-0.2754 0.2447-0.2111 0.3633-0.3301c0.1185-0.119 0.2351-0.2473 0.3476-0.3848s0.2186-0.2849 0.3184-0.4414c0.1-0.1564 0.1926-0.3222 0.2793-0.498 0.087-0.1758 0.167-0.3612 0.2402-0.5567 0.073-0.1955 0.1399-0.4015 0.1992-0.6172 0.059-0.2156 0.1131-0.4396 0.1582-0.6757 0.045-0.2362 0.083-0.4832 0.1133-0.7403 0.03-0.257 0.053-0.5244 0.068-0.8027s0.023-0.5672 0.023-0.8672c0-0.3125-0.01-0.6156-0.023-0.9062-0.015-0.2907-0.038-0.5692-0.068-0.8379-0.03-0.2688-0.068-0.5266-0.1133-0.7735-0.045-0.2468-0.099-0.484-0.1582-0.709-0.059-0.225-0.1259-0.4375-0.1992-0.6406-0.073-0.2031-0.1535-0.3969-0.2402-0.5781-0.087-0.1813-0.1795-0.3504-0.2793-0.5098-0.1-0.1593-0.2059-0.3078-0.3184-0.4453s-0.2298-0.2658-0.3515-0.3847c-0.1217-0.119-0.2485-0.2293-0.3789-0.3301-0.1305-0.1008-0.2635-0.1924-0.4024-0.2754-0.1388-0.083-0.2828-0.157-0.4297-0.2227-0.1468-0.066-0.2986-0.1232-0.4531-0.1718-0.1545-0.049-0.3109-0.089-0.4726-0.1211-0.1618-0.032-0.3276-0.055-0.4961-0.07-0.1686-0.016-0.3407-0.023-0.5157-0.023z" fill="#f7971d"/><path d="m3.6993 34.9c-2.2 0.3-3.4993 1.5996-3.6993 4.0996v41.4c0.2 2.5 1.3993 3.8996 3.6993 4.0996h72.201c2.2-0.3 3.4992-1.5996 3.6992-4.0996v-41.4c-0.4-2.5-1.5988-3.7996-3.7988-4.0996zm3.2011 8.5996h5.7989v9.8008c0.1875-0.175 0.3998-0.3392 0.6328-0.4922 0.233-0.1529 0.4882-0.2953 0.7578-0.4257 0.2695-0.1305 0.5545-0.2499 0.8515-0.3575 0.2971-0.1076 0.6063-0.2027 0.9219-0.2871 0.3156-0.084 0.6377-0.158 0.9629-0.2187 0.3252-0.061 0.6527-0.1098 0.9785-0.1465 0.3258-0.037 0.6494-0.06 0.9668-0.072s0.6278-0.012 0.9278 0h0.1015c0.3 0 0.5871 0.018 0.8653 0.053 0.2781 0.034 0.546 0.084 0.8085 0.1465 0.2625 0.062 0.5184 0.1383 0.7715 0.2227 0.2532 0.084 0.5039 0.1773 0.7539 0.2773 0.275 0.125 0.5321 0.2575 0.7696 0.3965 0.2375 0.1391 0.4562 0.2852 0.6562 0.4414 0.2 0.1563 0.3805 0.3215 0.543 0.4981 0.1625 0.1765 0.3066 0.3644 0.4316 0.5644 0.15 0.2 0.2813 0.4063 0.3985 0.6172 0.1172 0.211 0.2207 0.4258 0.3144 0.6445 0.1875 0.4375 0.3363 0.8879 0.4863 1.3379 0.05 0.225 0.093 0.4825 0.1309 0.7715 0.037 0.2891 0.069 0.6106 0.094 0.9668 0.05 0.7125 0.076 1.5625 0.076 2.5625v12.699h-5.8008v-11.5c0-1.1-0.024-2.025-0.074-2.75-0.025-0.3625-0.056-0.6742-0.094-0.9336-0.037-0.2593-0.081-0.4652-0.1309-0.6152-0.075-0.15-0.1508-0.2941-0.2305-0.4316-0.08-0.1375-0.164-0.2696-0.2578-0.3946-0.094-0.125-0.1972-0.2429-0.3144-0.3554s-0.2485-0.2184-0.3985-0.3184c-0.15-0.075-0.3062-0.1441-0.4687-0.2051s-0.3309-0.1144-0.5059-0.1582c-0.175-0.044-0.3554-0.078-0.5429-0.1015-0.1875-0.024-0.3821-0.035-0.5821-0.035-0.25 0-0.4867 0.013-0.7148 0.039s-0.4477 0.067-0.6602 0.123-0.4179 0.1278-0.6211 0.2168c-0.2031 0.089-0.4035 0.1953-0.6035 0.3203s-0.3871 0.2621-0.5605 0.4121c-0.1735 0.15-0.3328 0.3133-0.4766 0.4883-0.1437 0.175-0.2719 0.3625-0.3828 0.5625s-0.2062 0.4117-0.2812 0.6367c-0.075 0.25-0.1422 0.5262-0.2032 0.8262s-0.1144 0.6246-0.1582 0.9746c-0.044 0.35-0.078 0.725-0.1015 1.125-0.024 0.4-0.037 0.8254-0.037 1.2754v10.799h-5.7989zm46.5 0h5.7989l-0.2989 9.7012c0.175-0.15 0.3751-0.2945 0.5957-0.4336 0.2207-0.1391 0.463-0.2734 0.7207-0.3984 0.2578-0.125 0.5302-0.2418 0.8164-0.3496 0.2863-0.1079 0.5864-0.2055 0.8926-0.293 0.3062-0.088 0.62-0.1644 0.9375-0.2285 0.3175-0.064 0.6368-0.1168 0.957-0.1543 0.3203-0.037 0.6407-0.061 0.9551-0.068 0.3144-0.01 0.6239 4e-4 0.9239 0.025 0.7 0.1 1.3007 0.1988 1.8007 0.2988 0.45 0.1 0.8931 0.2257 1.3243 0.379 0.2155 0.077 0.4281 0.1588 0.6367 0.25 0.2085 0.091 0.4133 0.1905 0.6133 0.2968 0.1999 0.1064 0.3961 0.2214 0.5859 0.3438 0.1898 0.1223 0.3727 0.2515 0.5508 0.3906s0.3508 0.2867 0.5156 0.4434c0.1648 0.1566 0.3227 0.323 0.4727 0.498 0.2125 0.2375 0.4126 0.4887 0.5996 0.7539 0.1869 0.2652 0.3613 0.5438 0.5214 0.836 0.1602 0.2921 0.3053 0.5977 0.4375 0.916 0.1323 0.3183 0.2504 0.6504 0.3536 0.9941 0.1031 0.3437 0.1927 0.7001 0.2656 1.0684 0.073 0.3683 0.1304 0.7484 0.1719 1.1406 0.041 0.3921 0.065 0.7957 0.074 1.2109 0.01 0.4152 0 0.8418-0.023 1.2793 0 0.4625-0.015 0.9123-0.043 1.3496s-0.069 0.8618-0.125 1.2735-0.1266 0.8115-0.211 1.1972c-0.084 0.3858-0.1824 0.7579-0.2949 1.1172-0.1124 0.3594-0.2403 0.7045-0.3809 1.0371-0.1405 0.3326-0.2941 0.6516-0.4628 0.9571-0.1688 0.3054-0.352 0.599-0.5489 0.8769-0.1968 0.2779-0.4078 0.541-0.6328 0.791-0.2125 0.25-0.4324 0.4844-0.6601 0.7032-0.2278 0.2187-0.4629 0.4218-0.7051 0.6093s-0.4922 0.3594-0.7481 0.5157c-0.2558 0.1562-0.5183 0.2968-0.7871 0.4218-0.2687 0.125-0.5433 0.2344-0.8242 0.3282-0.2809 0.094-0.5672 0.1718-0.8594 0.2343-0.2922 0.062-0.5898 0.1094-0.8925 0.1407-0.3028 0.031-0.6114 0.047-0.9239 0.047h-0.5c-0.375 0-0.734-0.017-1.0781-0.049s-0.6742-0.079-0.9883-0.1387c-0.314-0.059-0.6117-0.1309-0.8965-0.2129-0.2847-0.082-0.5563-0.1754-0.8125-0.2754s-0.498-0.207-0.7265-0.3203-0.443-0.2317-0.6445-0.3536c-0.2016-0.1218-0.3891-0.2472-0.5645-0.373s-0.3383-0.252-0.4883-0.377v1.5996h-5.4004zm-9.3008 8.3008h5.8008v21.9h-5.3008v-2.4004c-0.1125 0.1375-0.2394 0.2836-0.3847 0.4356-0.1453 0.1519-0.309 0.309-0.4903 0.4668-0.1812 0.1578-0.3812 0.3175-0.6015 0.4726s-0.4602 0.3055-0.7227 0.4492c-0.2625 0.1438-0.5476 0.2805-0.8554 0.4043-0.3079 0.1239-0.6379 0.2348-0.9942 0.3301-0.3562 0.095-0.7387 0.1742-1.1465 0.2324-0.4078 0.058-0.8422 0.097-1.3047 0.1094h-0.6992c-0.35 0-0.6937-0.025-1.0312-0.072s-0.6692-0.1156-0.9942-0.2031c-0.325-0.088-0.6445-0.1945-0.957-0.3164s-0.618-0.2582-0.918-0.4082c-0.275-0.15-0.5382-0.3203-0.7851-0.5078s-0.477-0.3922-0.6895-0.6172-0.4062-0.4699-0.5781-0.7324-0.3223-0.5438-0.4473-0.8438c-0.125-0.275-0.2375-0.5863-0.3359-0.9316-0.098-0.3453-0.1832-0.7246-0.252-1.1309-0.069-0.4062-0.1222-0.841-0.1582-1.2988s-0.055-0.9375-0.055-1.4375v-13.801h5.8007v10c0 1.5 0.024 2.7246 0.074 3.6621 0.025 0.4688 0.056 0.8661 0.094 1.1895 0.037 0.3234 0.083 0.573 0.1328 0.748 0.075 0.175 0.1547 0.3387 0.2422 0.4903 0.088 0.1515 0.1813 0.2906 0.2813 0.4218 0.1 0.1313 0.2078 0.2532 0.3203 0.3672 0.1125 0.1141 0.2304 0.2203 0.3554 0.3203s0.2621 0.1887 0.4121 0.2637 0.3133 0.1375 0.4883 0.1875 0.3625 0.086 0.5625 0.1113c0.2 0.025 0.4117 0.039 0.6367 0.039s0.4504-0.019 0.6739-0.055c0.2234-0.036 0.4453-0.089 0.664-0.1582 0.2188-0.069 0.4336-0.1535 0.6446-0.2519 0.2109-0.099 0.4172-0.211 0.6172-0.336s0.3828-0.2617 0.5468-0.4101c0.1641-0.1485 0.3102-0.3078 0.4414-0.4766 0.1313-0.1687 0.2461-0.3473 0.3477-0.5332s0.1906-0.3801 0.2656-0.5801 0.136-0.4758 0.1875-0.8242c0.052-0.3484 0.094-0.7699 0.125-1.2637 0.031-0.4937 0.052-1.0593 0.066-1.6953 0.014-0.6359 0.02-1.3422 0.02-2.1172z" fill="#f7971d"/><g fill="#fff">
<path d="m0 0v27.5h5.5996v-10.4h3.7012c2.5 0 4.3992-0.1984 5.6992-0.3984 1-0.2 1.9004-0.6008 2.9004-1.3008s1.7004-1.5992 2.4004-2.6992c0.6-1.1 1-2.6008 1-4.3008 0-2.2-0.5015-4.0004-1.6015-5.4004-1.2-1.3-2.5993-2.1996-4.1993-2.5996-1-0.3-3.1996-0.4004-6.5996-0.4004zm5.6993 4.7012h2.7011c0.5 0 0.9551 0 1.3692 0.016 0.414 0.011 0.7859 0.028 1.1172 0.047 0.3312 0.019 0.6234 0.039 0.875 0.062 0.2515 0.024 0.4636 0.049 0.6386 0.074 0.1125 0.025 0.2229 0.053 0.3321 0.084 0.1091 0.031 0.2168 0.066 0.3222 0.1035 0.1055 0.037 0.2092 0.077 0.3106 0.1211 0.1013 0.044 0.2 0.091 0.2968 0.1406 0.097 0.05 0.1913 0.104 0.2832 0.1602 0.092 0.056 0.1829 0.1152 0.2696 0.1777 0.087 0.062 0.1689 0.1286 0.25 0.1973 0.081 0.069 0.1594 0.1398 0.2344 0.2148s0.1453 0.1545 0.2109 0.2383c0.066 0.084 0.1273 0.1723 0.1836 0.2637 0.056 0.091 0.1074 0.1873 0.1543 0.2852 0.047 0.098 0.089 0.1976 0.1269 0.3007 0.037 0.1032 0.07 0.2092 0.098 0.3164 0.028 0.1073 0.052 0.2161 0.07 0.3262 0.019 0.1102 0.034 0.2221 0.043 0.334 0.01 0.1119 0.014 0.2234 0.014 0.3359-0.05 0.225-0.099 0.4371-0.1523 0.6387-0.053 0.2016-0.1094 0.393-0.1719 0.5742-0.062 0.1813-0.1308 0.3535-0.209 0.5176-0.039 0.082-0.081 0.1619-0.125 0.2402-0.044 0.078-0.091 0.1555-0.1406 0.2305-0.05 0.075-0.1041 0.1457-0.1601 0.2149-0.056 0.069-0.1141 0.1351-0.1758 0.1992-0.062 0.064-0.1264 0.1258-0.1934 0.1855-0.067 0.06-0.1371 0.1176-0.209 0.1738-0.1437 0.1125-0.2961 0.2192-0.457 0.3223s-0.3309 0.2027-0.5059 0.3027c-0.088 0.05-0.1865 0.095-0.2988 0.1329-0.1123 0.038-0.2383 0.071-0.375 0.1-0.1367 0.028-0.2846 0.051-0.4453 0.07-0.1607 0.02-0.3332 0.036-0.5176 0.049-0.1843 0.013-0.3802 0.02-0.5879 0.027-0.2076 0.01-0.4277 0.012-0.6582 0.016-0.4609 0.01-0.9675 0.01-1.5175 0.01h-3z"/><path d="m32.5 7.2012c-1.9 0-3.7007 0.3988-5.3007 1.2988s-2.7993 2.1012-3.6993 3.7012c-0.9 1.7-1.3007 3.2996-1.3007 5.0996 0 2.3 0.4007 4.2988 1.3007 5.7988 0.9 1.6 2.0993 2.8012 3.6993 3.7012 1.7 0.8 3.4011 1.1992 5.2011 1.1992 3 0 5.3989-1 7.2989-3s3-4.4 3-7.5c0-3-0.9985-5.5004-2.8985-7.4004-1.8-1.8999-4.2008-2.8984-7.3008-2.8984zm0 4.2988c0.175 0 0.3457 0.01 0.5118 0.024 0.166 0.016 0.3265 0.04 0.4843 0.072s0.3125 0.072 0.4629 0.1211c0.1504 0.049 0.2977 0.1063 0.4414 0.1719 0.1438 0.066 0.284 0.1397 0.4219 0.2227s0.2734 0.1746 0.4063 0.2754c0.1328 0.1007 0.2621 0.2111 0.3906 0.33 0.1285 0.119 0.2558 0.2454 0.3808 0.3829 0.062 0.062 0.1219 0.1269 0.1797 0.1933 0.058 0.066 0.1147 0.1348 0.168 0.2051 0.053 0.07 0.1035 0.1426 0.1523 0.2168 0.049 0.074 0.096 0.1504 0.1407 0.2285 0.044 0.078 0.087 0.1582 0.1269 0.2402 0.04 0.082 0.079 0.1661 0.1152 0.252 0.036 0.086 0.07 0.1738 0.1016 0.2637 0.032 0.09 0.062 0.1816 0.09 0.2754 0.056 0.1875 0.1054 0.3828 0.1464 0.5859s0.075 0.4141 0.1016 0.6328c0.027 0.2188 0.046 0.4453 0.059 0.6797s0.019 0.4766 0.019 0.7266-0.01 0.4908-0.019 0.7226c-0.013 0.2318-0.032 0.4551-0.059 0.6699-0.027 0.2149-0.061 0.4221-0.1016 0.6211-0.041 0.1991-0.09 0.3899-0.1464 0.5742-0.028 0.092-0.058 0.1828-0.09 0.2715-0.032 0.089-0.065 0.1763-0.1016 0.2617-0.036 0.085-0.075 0.1697-0.1152 0.252-0.04 0.082-0.082 0.1629-0.1269 0.2422-0.045 0.079-0.092 0.156-0.1407 0.2324-0.049 0.076-0.099 0.1528-0.1523 0.2266-0.053 0.074-0.1101 0.1456-0.168 0.2168-0.058 0.071-0.1172 0.1402-0.1797 0.209-0.125 0.125-0.2523 0.2453-0.3808 0.3574s-0.2578 0.216-0.3906 0.3144c-0.1329 0.098-0.2684 0.1914-0.4063 0.2754s-0.2781 0.1598-0.4219 0.2285c-0.1437 0.069-0.291 0.1289-0.4414 0.1817-0.1504 0.053-0.3051 0.099-0.4629 0.1347-0.1578 0.036-0.3183 0.062-0.4843 0.08-0.1661 0.018-0.3368 0.029-0.5118 0.029s-0.3457-0.01-0.5117-0.023c-0.166-0.016-0.3265-0.04-0.4844-0.072-0.1578-0.032-0.3125-0.072-0.4628-0.1211-0.1504-0.049-0.2977-0.1062-0.4415-0.1719-0.1437-0.066-0.2839-0.1396-0.4218-0.2226s-0.2735-0.1746-0.4063-0.2754-0.2621-0.2111-0.3906-0.3301c-0.1285-0.1189-0.2559-0.2473-0.3809-0.3848-0.062-0.062-0.1218-0.1269-0.1797-0.1933-0.058-0.066-0.1146-0.1348-0.1679-0.2051-0.053-0.07-0.1035-0.1426-0.1524-0.2168-0.049-0.074-0.096-0.1504-0.1406-0.2285-0.045-0.078-0.087-0.1582-0.1269-0.2402-0.04-0.082-0.079-0.1661-0.1153-0.252-0.036-0.086-0.07-0.1738-0.1015-0.2637-0.032-0.09-0.062-0.1816-0.09-0.2754-0.056-0.1875-0.1054-0.3828-0.1465-0.5859-0.041-0.2031-0.075-0.4141-0.1015-0.6328-0.027-0.2188-0.046-0.4453-0.059-0.6797s-0.019-0.4766-0.019-0.7266 0.01-0.4921 0.019-0.7265c0.013-0.2344 0.032-0.461 0.059-0.6797 0.026-0.2188 0.061-0.4297 0.1015-0.6328 0.041-0.2031 0.09-0.3985 0.1465-0.586 0.028-0.094 0.058-0.1855 0.09-0.2753 0.032-0.09 0.065-0.1778 0.1015-0.2637 0.036-0.086 0.075-0.1699 0.1153-0.252 0.04-0.082 0.082-0.1621 0.1269-0.2402 0.044-0.078 0.092-0.1543 0.1406-0.2285 0.049-0.074 0.099-0.1465 0.1524-0.2168 0.053-0.07 0.1101-0.1387 0.1679-0.2051 0.058-0.066 0.1172-0.1309 0.1797-0.1934 0.125-0.125 0.2524-0.2433 0.3809-0.3554s0.2578-0.218 0.3906-0.3164c0.1328-0.099 0.2684-0.1895 0.4063-0.2735s0.2781-0.1597 0.4218-0.2285c0.1438-0.069 0.2911-0.1308 0.4415-0.1836 0.1503-0.053 0.305-0.097 0.4628-0.1328 0.1579-0.036 0.3184-0.064 0.4844-0.082s0.3367-0.027 0.5117-0.027z"/><path d="m54 7.2004c-1.6 0.2-3 1.5-3.7 2.3v-1.9h-4.9v19.9h5.3v-6.2c0-3.4 0.2-5.7 0.4-6.7 0.3-1 0.7-1.8 1.2-2.2s1.1-0.6 1.9-0.6 1.6 0.3 2.4 0.9l1.7-4.6c-1.1-0.7-2.3-1-3.5-1-0.2 0.1-0.5 0.1-0.8 0.1"/><path d="m79.2 11.6c-0.2-0.8-0.5-1.6-1-2.2s-1.2-1.2-2.2-1.6-2-0.6-3.2-0.6c-2.1-0.1-5.6 0.7-6.5 2.4v-1.9h-4.9v19.9h5.3v-9.1c0-2.3 0.2-3.7 0.4-4.6 0.3-0.8 0.8-1.5 1.5-2s1.6-0.8 2.4-0.8c0.7 0 1.3 0.2 1.8 0.5s0.9 0.9 1.1 1.5c0.3 0.6 0.3 2 0.3 4.2v10.2h5.3v-12.4c0-1.5-0.1-2.7-0.3-3.5"/>
</g></svg>
